<svg xmlns="http://www.w3.org/2000/svg" width="39.862" height="50.369" viewBox="0 0 39.862 50.369">
  <g id="Group_3359" data-name="Group 3359" transform="translate(-1097.17 -1771.998)">
    <g id="Group_3347" data-name="Group 3347" transform="translate(1097.17 1771.998)">
      <path id="Path_390" data-name="Path 390" d="M418.817,64.72a5.96,5.96,0,0,1,2.89,1.287l14.2,14.2a9.4,9.4,0,0,1,2.147,4.744c0,3.543.268,7.169.081,10.714a8.462,8.462,0,0,1-1.673,4.835A15.882,15.882,0,0,0,431.94,90.23c-3.477-3.733-7.434-7.069-10.9-10.822-4.164-4.512-3.57-8.634-3.518-14.448l.109-.24c.382.028.808-.038,1.183,0" transform="translate(-398.34 -64.708)" fill="#182d1f"/>
      <path id="Path_391" data-name="Path 391" d="M398.466,80.487a15.862,15.862,0,0,0,4.315,10.06c3.676,4.014,8.155,7.67,11.732,11.727,3.592,4.074,2.851,8.7,2.892,13.752.034.287-.441.315-.662.312a6.128,6.128,0,0,1-3.45-1.29L398.952,100.71a9.337,9.337,0,0,1-2.156-5.571c-.16-2.928-.158-6.817,0-9.748a8.79,8.79,0,0,1,1.673-4.9" transform="translate(-396.677 -65.97)" fill="#182d1f"/>
      <path id="Path_392" data-name="Path 392" d="M425.135,92.156l-6.175,6.175a1.059,1.059,0,0,1-1.535,0l-6.175-6.175a1.059,1.059,0,0,1,0-1.535l6.175-6.175a1.059,1.059,0,0,1,1.535,0l6.175,6.175a1.059,1.059,0,0,1,0,1.535" transform="translate(-397.816 -66.26)" fill="#182d1f"/>
    </g>
  </g>
</svg>
