<svg xmlns="http://www.w3.org/2000/svg" width="259.235" height="327.568" viewBox="0 0 259.235 327.568">
  <g id="Group_3352" data-name="Group 3352" transform="translate(-6938.098 726.665)">
    <g id="Group_3351" data-name="Group 3351" transform="translate(6889.923 -791.373)">
      <path id="Path_374" data-name="Path 374" d="M77.74,64.786c6.264.634,13.983,4.326,18.793,8.371L188.891,165.5a61.138,61.138,0,0,1,13.965,30.85c-.024,23.042,1.741,46.622.527,69.675-.574,10.872-3.9,23.048-10.878,31.442-.67-25.3-12.481-48.6-29.42-66.779-22.611-24.274-48.345-45.969-70.866-70.381C65.139,130.967,69,104.156,69.339,66.348l.706-1.562c2.483.18,5.253-.245,7.694,0" transform="translate(103.6)" fill="#f7f7f5"/>
      <path id="Path_375" data-name="Path 375" d="M59.808,80.487c.808,24.49,11.715,47.585,28.062,65.427,23.909,26.105,53.036,49.883,76.3,76.263,23.359,26.494,18.542,56.548,18.8,89.438.227,1.867-2.86,2.046-4.3,2.028-7.383-.09-16.765-3.692-22.431-8.388L62.967,212.005a60.756,60.756,0,0,1-14.013-36.229c-1.041-19.045-1.029-44.336-.024-63.393.592-11.308,3.919-22.9,10.878-31.9" transform="translate(0 78.632)" fill="#f7f7f5"/>
      <path id="Path_376" data-name="Path 376" d="M154.857,136.4,114.7,176.557a6.885,6.885,0,0,1-9.98,0L64.564,136.4a6.876,6.876,0,0,1,0-9.98l40.16-40.16a6.886,6.886,0,0,1,9.98,0l40.154,40.16a6.885,6.885,0,0,1,0,9.98" transform="translate(70.98 96.722)" fill="#caf187"/>
    </g>
  </g>
</svg>
