<svg xmlns="http://www.w3.org/2000/svg" width="259.241" height="327.568" viewBox="0 0 259.241 327.568">
  <g id="Group_3353" data-name="Group 3353" transform="translate(-927.668 -314.708)">
    <path id="Path_390" data-name="Path 390" d="M426.243,64.786c6.264.634,13.983,4.326,18.794,8.371L537.394,165.5a61.134,61.134,0,0,1,13.965,30.85c-.024,23.042,1.741,46.622.527,69.675-.574,10.872-3.9,23.048-10.878,31.442-.67-25.3-12.481-48.6-29.42-66.779-22.61-24.274-48.345-45.969-70.866-70.381-27.08-29.342-23.215-56.153-22.88-93.961l.706-1.562c2.483.18,5.253-.245,7.694,0" transform="translate(634.597 250)" fill="#192c1f"/>
    <path id="Path_391" data-name="Path 391" d="M408.31,80.487c.814,24.49,11.715,47.585,28.062,65.427,23.909,26.105,53.036,49.883,76.3,76.263,23.359,26.494,18.542,56.548,18.806,89.438.221,1.867-2.866,2.046-4.308,2.028-7.377-.09-16.765-3.692-22.437-8.389l-93.255-93.249a60.725,60.725,0,0,1-14.019-36.229c-1.041-19.045-1.029-44.336-.024-63.393.592-11.308,3.919-22.9,10.878-31.9" transform="translate(530.991 328.632)" fill="#192c1f"/>
    <path id="Path_392" data-name="Path 392" d="M503.361,136.4l-40.16,40.16a6.886,6.886,0,0,1-9.98,0l-40.16-40.16a6.886,6.886,0,0,1,0-9.98l40.16-40.16a6.886,6.886,0,0,1,9.98,0l40.16,40.16a6.885,6.885,0,0,1,0,9.98" transform="translate(601.976 346.722)" fill="#caf186"/>
  </g>
</svg>
