<svg xmlns="http://www.w3.org/2000/svg" width="25.252" height="25.252" viewBox="0 0 25.252 25.252">
  <g id="noun-pencil-7486865" transform="translate(0 0)">
    <path id="Path_2691" data-name="Path 2691" d="M18.492,35.116,30.784,22.824a.624.624,0,0,1,.867,0l4.894,4.894a.624.624,0,0,1,0,.867L24.253,40.877a.6.6,0,0,1-.39.178.627.627,0,0,1-.477-.178l-4.894-4.894A.624.624,0,0,1,18.492,35.116Z" transform="translate(-15.568 -18.549)" fill="#fff"/>
    <path id="Path_2692" data-name="Path 2692" d="M63.728,11.965l1.967-1.97a1.7,1.7,0,0,1,2.4,0l3.363,3.363a1.7,1.7,0,0,1,0,2.4l-1.97,1.967a.628.628,0,0,1-.358.175.6.6,0,0,1-.505-.175l-4.894-4.894a.57.57,0,0,1-.166-.312.6.6,0,0,1,.166-.552Z" transform="translate(-46.7 -9.499)" fill="#fff"/>
    <path id="Path_2693" data-name="Path 2693" d="M9.985,75.722l5.735-1.293h0a.624.624,0,0,0,.312-1.031l-4.2-4.188a.624.624,0,0,0-1.031.312l-1.3,5.725a.4.4,0,0,0,.476.476Z" transform="translate(-9.499 -50.48)" fill="#fff"/>
  </g>
</svg>
